<mxfile host="app.diagrams.net" agent="Mozilla/5.0 (Windows NT 10.0; Win64; x64) AppleWebKit/537.36 (KHTML, like Gecko) Chrome/131.0.0.0 Safari/537.36 Edg/131.0.0.0" version="24.9.1">
  <diagram name="Page-1" id="lVaDzqaFr3e8fcSXaXfB">
    <mxGraphModel dx="1042" dy="565" grid="1" gridSize="10" guides="1" tooltips="1" connect="1" arrows="1" fold="1" page="1" pageScale="1" pageWidth="850" pageHeight="1100" math="0" shadow="0">
      <root>
        <mxCell id="0" />
        <mxCell id="1" parent="0" />
        <mxCell id="IE5xCXx8Z1A9PaznAQ7L-5" value="" style="edgeStyle=orthogonalEdgeStyle;rounded=0;orthogonalLoop=1;jettySize=auto;html=1;" edge="1" parent="1" source="IE5xCXx8Z1A9PaznAQ7L-1" target="IE5xCXx8Z1A9PaznAQ7L-4">
          <mxGeometry relative="1" as="geometry" />
        </mxCell>
        <mxCell id="IE5xCXx8Z1A9PaznAQ7L-1" value="start" style="strokeWidth=2;html=1;shape=mxgraph.flowchart.start_1;whiteSpace=wrap;" vertex="1" parent="1">
          <mxGeometry x="370" y="30" width="100" height="60" as="geometry" />
        </mxCell>
        <mxCell id="IE5xCXx8Z1A9PaznAQ7L-7" value="" style="edgeStyle=orthogonalEdgeStyle;rounded=0;orthogonalLoop=1;jettySize=auto;html=1;" edge="1" parent="1" source="IE5xCXx8Z1A9PaznAQ7L-4" target="IE5xCXx8Z1A9PaznAQ7L-6">
          <mxGeometry relative="1" as="geometry" />
        </mxCell>
        <mxCell id="IE5xCXx8Z1A9PaznAQ7L-4" value="a มีค่า เท่ากับ10" style="whiteSpace=wrap;html=1;strokeWidth=2;" vertex="1" parent="1">
          <mxGeometry x="340" y="120" width="160" height="60" as="geometry" />
        </mxCell>
        <mxCell id="IE5xCXx8Z1A9PaznAQ7L-9" value="" style="edgeStyle=orthogonalEdgeStyle;rounded=0;orthogonalLoop=1;jettySize=auto;html=1;" edge="1" parent="1" source="IE5xCXx8Z1A9PaznAQ7L-6" target="IE5xCXx8Z1A9PaznAQ7L-8">
          <mxGeometry relative="1" as="geometry" />
        </mxCell>
        <mxCell id="IE5xCXx8Z1A9PaznAQ7L-6" value="b มีค่า เท่ากับ 20" style="whiteSpace=wrap;html=1;strokeWidth=2;" vertex="1" parent="1">
          <mxGeometry x="340" y="210" width="160" height="60" as="geometry" />
        </mxCell>
        <mxCell id="IE5xCXx8Z1A9PaznAQ7L-11" value="" style="edgeStyle=orthogonalEdgeStyle;rounded=0;orthogonalLoop=1;jettySize=auto;html=1;" edge="1" parent="1" source="IE5xCXx8Z1A9PaznAQ7L-8" target="IE5xCXx8Z1A9PaznAQ7L-10">
          <mxGeometry relative="1" as="geometry" />
        </mxCell>
        <mxCell id="IE5xCXx8Z1A9PaznAQ7L-8" value="c เก็บตัวอักษรแบบชุด คำว่า Haha" style="whiteSpace=wrap;html=1;strokeWidth=2;" vertex="1" parent="1">
          <mxGeometry x="330" y="300" width="180" height="60" as="geometry" />
        </mxCell>
        <mxCell id="IE5xCXx8Z1A9PaznAQ7L-13" value="" style="edgeStyle=orthogonalEdgeStyle;rounded=0;orthogonalLoop=1;jettySize=auto;html=1;" edge="1" parent="1" source="IE5xCXx8Z1A9PaznAQ7L-10" target="IE5xCXx8Z1A9PaznAQ7L-12">
          <mxGeometry relative="1" as="geometry" />
        </mxCell>
        <mxCell id="IE5xCXx8Z1A9PaznAQ7L-10" value="d เก็บตัวอักษร1ตัว คำว่า a" style="whiteSpace=wrap;html=1;strokeWidth=2;" vertex="1" parent="1">
          <mxGeometry x="327.5" y="390" width="185" height="60" as="geometry" />
        </mxCell>
        <mxCell id="IE5xCXx8Z1A9PaznAQ7L-15" value="" style="edgeStyle=orthogonalEdgeStyle;rounded=0;orthogonalLoop=1;jettySize=auto;html=1;" edge="1" parent="1" source="IE5xCXx8Z1A9PaznAQ7L-12" target="IE5xCXx8Z1A9PaznAQ7L-14">
          <mxGeometry relative="1" as="geometry" />
        </mxCell>
        <mxCell id="IE5xCXx8Z1A9PaznAQ7L-12" value="แสดงผล ตัว a ที่เก็บค่า 10 ออกมา" style="shape=parallelogram;perimeter=parallelogramPerimeter;whiteSpace=wrap;html=1;fixedSize=1;strokeWidth=2;" vertex="1" parent="1">
          <mxGeometry x="321.25" y="480" width="197.5" height="60" as="geometry" />
        </mxCell>
        <mxCell id="IE5xCXx8Z1A9PaznAQ7L-17" value="" style="edgeStyle=orthogonalEdgeStyle;rounded=0;orthogonalLoop=1;jettySize=auto;html=1;" edge="1" parent="1" source="IE5xCXx8Z1A9PaznAQ7L-14" target="IE5xCXx8Z1A9PaznAQ7L-16">
          <mxGeometry relative="1" as="geometry" />
        </mxCell>
        <mxCell id="IE5xCXx8Z1A9PaznAQ7L-14" value="แสดงผล ตัว b ที่เก็บค่า 20 ออกมาเป็นจุดทศนิยม 1 ตำแหน่ง" style="shape=parallelogram;perimeter=parallelogramPerimeter;whiteSpace=wrap;html=1;fixedSize=1;strokeWidth=2;" vertex="1" parent="1">
          <mxGeometry x="310.63" y="580" width="218.75" height="60" as="geometry" />
        </mxCell>
        <mxCell id="IE5xCXx8Z1A9PaznAQ7L-19" value="" style="edgeStyle=orthogonalEdgeStyle;rounded=0;orthogonalLoop=1;jettySize=auto;html=1;" edge="1" parent="1" source="IE5xCXx8Z1A9PaznAQ7L-16" target="IE5xCXx8Z1A9PaznAQ7L-18">
          <mxGeometry relative="1" as="geometry" />
        </mxCell>
        <mxCell id="IE5xCXx8Z1A9PaznAQ7L-16" value="แสดงผล ตัว c ที่เก็บตัวอักษรแบบชุด" style="shape=parallelogram;perimeter=parallelogramPerimeter;whiteSpace=wrap;html=1;fixedSize=1;strokeWidth=2;" vertex="1" parent="1">
          <mxGeometry x="310.63" y="680" width="218.75" height="60" as="geometry" />
        </mxCell>
        <mxCell id="IE5xCXx8Z1A9PaznAQ7L-18" value="แสดงผล ตัว d&amp;nbsp; ที่เก็บตัวอักษร 1 ตัว" style="shape=parallelogram;perimeter=parallelogramPerimeter;whiteSpace=wrap;html=1;fixedSize=1;strokeWidth=2;" vertex="1" parent="1">
          <mxGeometry x="310.62" y="770" width="218.75" height="60" as="geometry" />
        </mxCell>
        <mxCell id="IE5xCXx8Z1A9PaznAQ7L-20" value="start" style="strokeWidth=2;html=1;shape=mxgraph.flowchart.start_1;whiteSpace=wrap;" vertex="1" parent="1">
          <mxGeometry x="369.99" y="860" width="100" height="60" as="geometry" />
        </mxCell>
        <mxCell id="IE5xCXx8Z1A9PaznAQ7L-21" style="edgeStyle=orthogonalEdgeStyle;rounded=0;orthogonalLoop=1;jettySize=auto;html=1;entryX=0.5;entryY=0;entryDx=0;entryDy=0;entryPerimeter=0;" edge="1" parent="1" source="IE5xCXx8Z1A9PaznAQ7L-18" target="IE5xCXx8Z1A9PaznAQ7L-20">
          <mxGeometry relative="1" as="geometry" />
        </mxCell>
      </root>
    </mxGraphModel>
  </diagram>
</mxfile>
